<svg xmlns="http://www.w3.org/2000/svg" width="127.01546" height="38.25244" viewBox="0 0 127.01546 38.25244"><defs><style>.cls-1{fill:#b25959;}</style></defs><title>airellologo</title><g id="Layer_2" data-name="Layer 2"><g id="Layer_1-2" data-name="Layer 1"><path class="cls-1" d="M13.751,4.75049h8.40039l4.40039,32.90185H19.20117l-.69971-5.70019H9.30078L7.00049,37.65234H0Zm-2.75,22.40137h7.10058c-.45019-5.70069-1.1001-12.501-1.25049-16.05127C15.65137,14.65088,13.10107,21.45117,11.001,27.15186Z"/><path class="cls-1" d="M36.45068,37.65234H29.7002l3.50048-25.20166,6.90039-1Zm.79981-29.50195c-2.1001,0-3.54981-1.6499-3.2002-4.05029A4.58851,4.58851,0,0,1,38.40088,0a3.31028,3.31028,0,0,1,3.25,4.1001A4.58733,4.58733,0,0,1,37.25049,8.15039Z"/><path class="cls-1" d="M48.35059,37.65234H41.6499L45.25,11.95068h5.95068l-.1499,3.4502h.04981c1.45019-2.3501,3.85009-4.05029,6.10009-4.05029a4.65358,4.65358,0,0,1,1.90039.45019L57.751,17.751a9.737,9.737,0,0,0-2.6001-.54981c-1.30029,0-2.40039.7002-4.30029,2.5Z"/><path class="cls-1" d="M76.30127,35.80225a17.94264,17.94264,0,0,1-9.15039,2.45019c-5.80029,0-10.00049-3.75049-8.70068-12.751,1.30029-9.55029,6.60058-14.10058,12.30078-14.10058s9.20068,3.55029,8.05078,11.95068a19.3592,19.3592,0,0,1-.8003,3.5H64.95068c-.60009,4.4502,1.3501,6.3003,4.2002,6.3003a15.92486,15.92486,0,0,0,6.40039-1.75ZM65.55078,22.65137h6.85059c.6997-5.1001-.50049-6.4502-2.35059-6.4502C68.30078,16.20117,66.251,17.80127,65.55078,22.65137Z"/><path class="cls-1" d="M87.3999,37.65234H80.64941L85.69971,1.7002l6.85058-1Z"/><path class="cls-1" d="M99.04932,37.65234H92.29883L97.34912,1.7002l6.85059-1Z"/><path class="cls-1" d="M113.79883,38.25244c-6.7002,0-10.50049-3.75049-9.10059-13.45068,1.3501-9.65088,6.15039-13.40088,12.85059-13.40088,6.65039,0,10.55078,3.75,9.20068,13.40088C125.34961,34.502,120.44922,38.25244,113.79883,38.25244Zm3.05029-21.90137c-2.80029,0-4.40039,2.4502-5.20068,8.45069-.84961,6,.05029,8.50049,2.85058,8.50049,2.79981,0,4.39991-2.50049,5.25-8.50049C120.54932,18.80127,119.64893,16.35107,116.84912,16.35107Z"/></g></g></svg>